<svg height="487pt" viewBox="-11 0 487 487.526" width="487pt" xmlns="http://www.w3.org/2000/svg"><path d="m79.464844 483.527344h-48.003906c-2.828126 0-5.121094-2.292969-5.121094-5.121094v-12.605469h58.246094v12.605469c0 2.828125-2.292969 5.121094-5.121094 5.121094zm0 0" fill="#f9a7a7"/><path d="m267.019531 344.882812h-4.375c-65.152343 0-117.96875-52.816406-117.96875-117.96875v-64.046874c0-65.152344 52.816407-117.96875 117.96875-117.96875h4.375c65.15625 0 117.972657 52.816406 117.972657 117.96875v64.046874c0 65.152344-52.820313 117.96875-117.972657 117.96875zm0 0" fill="#4671c6"/><path d="m267.019531 348.886719h-4.375c-67.253906 0-121.96875-54.714844-121.96875-121.972657v-64.046874c0-67.253907 54.714844-121.96875 121.96875-121.96875h4.375c67.253907 0 121.96875 54.714843 121.96875 121.96875v64.046874c0 67.257813-54.714843 121.972657-121.96875 121.972657zm-4.375-299.988281c-62.84375 0-113.96875 51.125-113.96875 113.96875v64.046874c0 62.84375 51.125 113.96875 113.96875 113.96875h4.375c62.84375 0 113.96875-51.125 113.96875-113.96875v-64.046874c0-62.84375-51.125-113.96875-113.96875-113.96875zm0 0" fill="#3762cc"/><path d="m335.121094 366.980469h-11.4375l-3.542969-.835938c-3.429687-.808593-5.855469-3.871093-5.855469-7.394531v-14.847656c-14.964844 7.796875-31.972656 12.214844-50.019531 12.214844s-35.054687-4.417969-50.023437-12.214844v15.582031c0 3.207031-2.007813 6.066406-5.023438 7.152344l-.304688.109375c-.292968.105468-.59375.167968-.894531.234375h-10.988281c-37.773438 0-68.398438 30.625-68.398438 68.402343v24.15625h87.023438v-.460937h100.84375v.460937h87.019531v-24.15625c.003907-37.777343-30.621093-68.402343-68.398437-68.402343zm0 0" fill="#f9cfcf"/><path d="m373.5 206.273438c-.230469 0-.453125.027343-.683594.03125v-10.253907c0-59.953125-48.601562-108.554687-108.554687-108.554687-59.949219 0-108.550781 48.601562-108.550781 108.554687v10.253907c-.230469-.003907-.453126-.03125-.6875-.03125-18.289063 0-33.117188 14.828124-33.117188 33.117187s14.828125 33.117187 33.117188 33.117187c1.203124 0 2.386718-.070312 3.554687-.195312 11.203125 48.023438 54.25 83.808594 105.683594 83.808594 51.433593 0 94.484375-35.785156 105.683593-83.808594 1.167969.125 2.355469.195312 3.554688.195312 18.289062 0 33.117188-14.828124 33.117188-33.117187 0-18.292969-14.828126-33.117187-33.117188-33.117187zm0 0" fill="#f9cfcf"/><g fill="#3762cc"><path d="m264.261719 360.117188c-51.449219 0-95.699219-34.210938-108.761719-83.613282-.15625.003906-.316406.003906-.476562.003906-20.464844 0-37.117188-16.652343-37.117188-37.121093 0-19.347657 14.882812-35.289063 33.804688-36.96875v-6.367188c0-62.0625 50.488281-112.554687 112.550781-112.554687 62.058593 0 112.550781 50.492187 112.550781 112.554687v6.367188c18.917969 1.683593 33.800781 17.621093 33.800781 36.96875 0 20.46875-16.648437 37.121093-37.117187 37.121093-.15625 0-.316406 0-.476563-.003906-13.054687 49.402344-57.304687 83.613282-108.757812 83.613282zm-105.679688-91.808594c1.839844 0 3.464844 1.265625 3.890625 3.09375 11.085938 47.523437 52.945313 80.714844 101.789063 80.714844 48.847656 0 90.707031-33.191407 101.792969-80.714844.457031-1.96875 2.3125-3.289063 4.316406-3.070313 1.078125.117188 2.128906.175781 3.128906.175781 16.054688 0 29.117188-13.0625 29.117188-29.121093 0-16.042969-13.046876-29.101563-29.089844-29.117188-.292969.019531-.464844.03125-.644532.035157-.023437 0-.046874 0-.066406 0-1.050781 0-2.054687-.414063-2.804687-1.148438-.765625-.753906-1.195313-1.78125-1.195313-2.851562v-10.257813c0-57.648437-46.902344-104.550781-104.550781-104.550781-57.652344 0-104.550781 46.902344-104.550781 104.550781v10.257813c0 1.070312-.433594 2.097656-1.195313 2.851562-.769531.75-1.851562 1.1875-2.875 1.144531-.179687 0-.355469-.011719-.535156-.023437-.003906 0-.007813 0-.011719 0-16.132812 0-29.191406 13.058594-29.191406 29.109375 0 16.054687 13.0625 29.117187 29.117188 29.117187 1.015624 0 2.039062-.054687 3.128906-.175781.148437-.011719.289062-.019531.429687-.019531zm0 0"/><path d="m212.03125 251.097656c-6.09375 0-11.039062-4.941406-11.039062-11.039062v-18.398438c0-6.097656 4.941406-11.039062 11.039062-11.039062s11.042969 4.941406 11.042969 11.039062v18.398438c0 6.097656-4.941407 11.039062-11.042969 11.039062zm0 0"/><path d="m316.492188 251.097656c-6.09375 0-11.039063-4.941406-11.039063-11.039062v-18.398438c0-6.097656 4.941406-11.039062 11.039063-11.039062 6.097656 0 11.039062 4.941406 11.039062 11.039062v18.398438c0 6.097656-4.941406 11.039062-11.039062 11.039062zm0 0"/><path d="m264.261719 304.351562c-15.503907 0-27.652344-8.6875-27.652344-19.769531 0-2.207031 1.792969-4 4-4 2.210937 0 4 1.792969 4 4 0 6.378907 9 11.769531 19.652344 11.769531 10.652343 0 19.652343-5.390624 19.652343-11.769531 0-2.207031 1.792969-4 4-4 2.207032 0 4 1.792969 4 4 0 11.082031-12.144531 19.769531-27.652343 19.769531zm0 0"/></g><path d="m272.710938 58.609375h-13.558594v.019531c-71.203125 12.734375-120.167969 67.386719-109.460938 122.371094l.171875.882812 45.300781-7.90625c38.835938-6.777343 66.789063-36.589843 69.875-70.933593h.378907c1.484375 34.34375 28.128906 65.402343 66.902343 74.152343l45.375 10.242188.222657-.875c13.703125-54.410156-32.980469-111.582031-104.339844-127.953125zm0 0" fill="#4671c6"/><path d="m372.214844 106.484375s-4.484375-.976563-12.695313-2.292969c-2.945312-.492187-5.855469-.949218-8.714843-1.375-.003907 0-.007813 0-.015626 0-2.058593-.304687-4.105468-.597656-6.121093-.871094-.046875-.007812-.097657-.015624-.144531-.019531-.117188-.019531-.234376-.035156-.351563-.050781-2.238281-.300781-4.449219-.582031-6.632813-.847656-8.394531-1.011719-16.355468-1.753906-23.816406-2.285156-.136718-.007813-.273437-.015626-.410156-.027344-5.390625-.375-10.523438-.640625-15.371094-.816406-.003906 0-.007812 0-.011718 0-1.578126-.058594-3.125-.105469-4.644532-.140626-.191406-.003906-.390625-.015624-.582031-.019531-.308594-.007812-.621094-.015625-.925781-.023437-.210938-.003906-.410156-.003906-.621094-.007813-.429688-.011719-.835938-.011719-1.261719-.023437-35.878906-1.269532-80.910156.15625-129.828125 8.796875.007813 0 .019532-.003907.027344-.003907-11.941406 15.015626-19.097656 34.015626-19.097656 54.695313v4.542969c53.421875-9.125 102.449218-11.179688 142.476562-10.269532 0 0 39.398438.585938 79.847656 6.226563.0625.007813.121094.015625.183594.023437.957032.132813 1.882813.265626 2.785156.398438.300782.042969.605469.089844.90625.132812 1.035157.152344 2.027344.300782 2.984376.449219 5.847656.898438 11.671874 1.90625 17.351562 3.042969v-12.027344c0-17.644531-5.691406-33.945312-15.316406-47.207031zm0 0" fill="#e0ebfc"/><path d="m387.53125 169.71875c-.261719 0-.523438-.027344-.78125-.078125-5.332031-1.066406-11.109375-2.082031-17.175781-3.011719l-6.625-.96875c-.007813 0-.199219-.027344-.207031-.03125-39.722657-5.539062-78.941407-6.179687-79.335938-6.183594-48.011719-1.09375-95.695312 2.347657-141.742188 10.214844-1.160156.195313-2.351562-.125-3.253906-.886718-.898437-.757813-1.417968-1.878907-1.417968-3.058594v-4.542969c0-20.839844 6.804687-40.480469 19.691406-56.832031.566406-.890625 1.476562-1.554688 2.589844-1.78125.03125-.003906.058593-.011719.089843-.015625 42.183594-7.449219 86.148438-10.4375 130.664063-8.855469l3.355468.070312c1.535157.039063 3.09375.085938 4.691407.144532 5.105469.183594 10.320312.460937 15.511719.824218l.417968.03125c7.925782.558594 16.007813 1.335938 24.011719 2.300782 2.203125.265625 4.433594.550781 6.6875.851562.007813 0 .367187.050782.375.050782 2.160156.296874 4.222656.589843 6.300781.898437.011719 0 .019532.003906.03125.003906 2.875.425781 5.804688.882813 8.765625 1.375 8.207031 1.316407 12.707031 2.292969 12.894531 2.332031.957032.210938 1.808594.765626 2.382813 1.558594 10.519531 14.496094 16.078125 31.632813 16.078125 49.554688v12.03125c0 1.195312-.535156 2.332031-1.460938 3.089844-.722656.597656-1.621093.914062-2.539062.914062zm-225.230469-59.566406c-11.292969 14.707031-17.269531 32.25-17.304687 50.839844 45.097656-7.398438 91.699218-10.609376 138.566406-9.546876.363281.007813 40.082031.65625 80.308594 6.265626.03125.003906.242187.035156.269531.039062l6.648437.972656c4.414063.679688 8.683594 1.402344 12.742188 2.152344v-7.183594c0-15.714844-4.714844-30.753906-13.664062-43.605468-1.925782-.382813-5.675782-1.097657-10.976563-1.945313-2.949219-.488281-5.832031-.945313-8.671875-1.363281-.015625-.003906-.027344-.003906-.042969-.007813-2.035156-.300781-4.054687-.589843-6.042969-.859375l.210938-4.007812-.53125 3.964844c-2.394531-.324219-4.589844-.601563-6.753906-.863282-7.878906-.953125-15.824219-1.714844-23.625-2.265625l-.207032-.015625c-.003906 0-.199218-.011718-.203124-.011718-5.101563-.355469-10.226563-.632813-15.234376-.8125-1.574218-.054688-3.109374-.101563-4.613281-.140626l-3.371093-.070312c-43.476563-1.535156-86.34375 1.308594-127.503907 8.464844zm0 0" fill="#3762cc"/><path d="m318.605469 99.652344.109375-.039063s-11.886719-1.730469-32.429688-1.976562v-.058594c-35.273437-1.050781-78.917968.550781-126.222656 8.90625.011719-.003906.019531-.003906.03125-.003906-3.238281 4.070312-6.109375 8.441406-8.597656 13.050781-.085938.152344-.1875.292969-.269532.449219-.148437.277343-.273437.570312-.417968.847656-.492188.953125-.964844 1.914063-1.425782 2.882813-.191406.402343-.390624.796874-.574218 1.199218-.59375 1.3125-1.148438 2.648438-1.679688 3.992188-.195312.496094-.382812.992187-.566406 1.488281-.398438 1.0625-.777344 2.132813-1.132812 3.210937-.136719.417969-.28125.828126-.414063 1.246094-.449219 1.4375-.863281 2.890625-1.242187 4.359375-.105469.40625-.195313.820313-.296876 1.226563-.285156 1.1875-.550781 2.386718-.789062 3.597656-.085938.425781-.175781.851562-.253906 1.285156-.28125 1.546875-.527344 3.101563-.730469 4.675782-.03125.269531-.054687.539062-.085937.808593-.160157 1.363281-.285157 2.734375-.382813 4.113281-.035156.441407-.0625.882813-.085937 1.324219-.089844 1.636719-.15625 3.277344-.15625 4.9375v4.542969c53.425781-9.125 102.453124-11.179688 142.480468-10.269531 0 0 .992188.011719 2.8125.0625v-.332031l33.136719-3.175782c13.867187-1.328125 24.878906-12.984375 24.457031-26.910156-.425781-14.125-11.746094-24.96875-25.273437-25.441406zm0 0" fill="#e0ebfc"/><path d="m140.992188 169.71875c-.9375 0-1.851563-.332031-2.578126-.941406-.902343-.761719-1.421874-1.878906-1.421874-3.058594v-4.546875c0-1.550781.050781-3.1875.160156-5.152344l.089844-1.390625c.101562-1.441406.234374-2.875.402343-4.296875l.09375-.863281c.195313-1.558594.445313-3.160156.761719-4.875.066406-.371094.144531-.746094.21875-1.121094l.042969-.230468c.246093-1.25.523437-2.503907.824219-3.746094l.308593-1.273438c.398438-1.546875.832031-3.070312 1.300781-4.574218.089844-.28125.1875-.5625.28125-.847657l.152344-.445312c.375-1.140625.769532-2.257813 1.1875-3.371094.1875-.507813.378906-1.027344.582032-1.539063.5625-1.421874 1.140624-2.816406 1.765624-4.1875.125-.273437.253907-.542968.386719-.808593l.210938-.441407c.476562-1.015624.972656-2.023437 1.488281-3.019531l.148438-.304687c.09375-.191406.183593-.382813.285156-.566406.097656-.1875.207031-.363282.3125-.539063 2.515625-4.65625 5.445312-9.125 8.683594-13.238281.566406-.890625 1.480468-1.554688 2.59375-1.78125.03125-.003906.058593-.011719.089843-.015625 40.980469-7.238281 83.726563-10.253907 127.039063-8.964844.207031.007813.414062.027344.617187.066406 20.152344.277344 31.78125 1.9375 32.269531 2.007813.078126.011718.152344.027344.230469.042968 15.496094.933594 27.886719 13.648438 28.359375 29.277344.472656 15.835938-11.859375 29.460938-28.078125 31.011719l-31.582031 3.023437c-.621094.34375-1.304688.53125-2.039062.5-1.785157-.046874-2.761719-.0625-2.773438-.0625-48.027344-1.089843-95.695312 2.347657-141.742188 10.214844-.222656.039063-.445312.058594-.671874.058594zm21.308593-59.566406c-2.691406 3.511718-5.136719 7.300781-7.285156 11.277344l-.394531.707031c-.089844.183593-.175782.367187-.269532.546875-.460937.890625-.914062 1.808594-1.347656 2.730468l-.554687 1.152344c-.566407 1.25-1.09375 2.527344-1.605469 3.808594-.179688.460938-.355469.933594-.535156 1.414062-.382813 1.019532-.738282 2.039063-1.082032 3.070313l-.394531 1.183594c-.429687 1.375-.824219 2.761719-1.1875 4.164062l-.28125 1.171875c-.273437 1.128906-.527343 2.269532-.753906 3.421875l-.242187 1.226563c-.269532 1.480468-.507813 2.964844-.695313 4.464844l-.085937.769531c-.152344 1.304687-.273438 2.613281-.367188 3.933593l-.082031 1.269532c-.097657 1.730468-.140625 3.175781-.144531 4.527344 45.097656-7.398438 91.699218-10.609376 138.566406-9.546876.003906 0 .425781.007813 1.210937.023438.355469-.144531.734375-.238281 1.128907-.273438l33.136718-3.171874c12.035156-1.15625 21.191406-11.171876 20.84375-22.808594-.355468-11.6875-9.761718-21.15625-21.414062-21.5625-.367188-.011719-.714844-.074219-1.050782-.175782-2.84375-.363281-13.984374-1.632812-31.183593-1.839843-.253907-.003907-.507813-.03125-.75-.082031-41.992188-1.210938-83.421875 1.683593-123.179688 8.597656zm0 0" fill="#3762cc"/><path d="m368.761719 459.539062h-209v-39.203124c0-6.332032 5.132812-11.464844 11.464843-11.464844h186.074219c6.328125 0 11.460938 5.132812 11.460938 11.464844zm0 0" fill="#e0ebfc"/><path d="m368.761719 463.539062h-209c-2.207031 0-4-1.792968-4-4v-39.203124c0-8.527344 6.9375-15.464844 15.464843-15.464844h186.074219c8.523438 0 15.460938 6.9375 15.460938 15.464844v39.203124c0 2.207032-1.789063 4-4 4zm-205-8h201v-35.203124c0-4.117188-3.347657-7.464844-7.460938-7.464844h-186.074219c-4.117187 0-7.460937 3.347656-7.460937 7.464844v35.203124zm0 0" fill="#3762cc"/><path d="m403.519531 463.539062h-87.019531c-.675781 0-1.308594-.167968-1.863281-.460937h-97.121094c-.554687.292969-1.1875.460937-1.863281.460937h-87.019532c-2.207031 0-4-1.792968-4-4v-24.15625c0-39.921874 32.476563-72.402343 72.398438-72.402343h10.527344.007812l.296875-.109375c1.421875-.511719 2.378907-1.875 2.378907-3.386719v-15.582031c0-1.394532.730468-2.691406 1.925781-3.417969 1.191406-.722656 2.679687-.773437 3.921875-.128906 14.988281 7.804687 31.195312 11.761719 48.171875 11.761719 16.976562 0 33.1875-3.957032 48.175781-11.761719 1.242188-.644531 2.730469-.59375 3.921875.128906 1.199219.726563 1.925781 2.023437 1.925781 3.417969v14.84375c0 1.679687 1.140625 3.121094 2.777344 3.507812l3.085938.726563h10.972656c39.921875 0 72.398437 32.476562 72.398437 72.398437v24.15625c0 2.210938-1.789062 4.003906-4 4.003906zm-85.15625-8h81.15625v-20.15625c0-35.511718-28.886719-64.402343-64.398437-64.402343h-11.4375c-.308594 0-.617188-.035157-.917969-.105469l-3.542969-.835938c-5.261718-1.242187-8.9375-5.886718-8.9375-11.292968v-8.464844c-14.398437 6.449219-30.179687 9.835938-46.023437 9.835938s-31.625-3.386719-46.019531-9.835938v9.207031c0 4.875-3.082032 9.257813-7.671876 10.914063l-.308593.113281c-.445313.160156-.902344.269531-1.359375.371094-.285156.0625-.59375.097656-.882813.097656h-10.988281c-35.507812 0-64.398438 28.890625-64.398438 64.402344v20.15625h81.160157c.554687-.296875 1.191406-.460938 1.863281-.460938h100.84375c.671875-.003906 1.308594.160157 1.863281.457031zm0 0" fill="#3762cc"/><path d="m72.679688 244.824219h-68.417969l8.46875 199.910156c.078125 1.863281 1.925781 3.339844 4.179687 3.339844h77.109375c2.25 0 4.097657-1.476563 4.179688-3.339844l8.46875-199.910156zm0 0" fill="#6bdddd"/><path d="m34.21875 425.179688-6.65625-157.136719c-.109375-2.609375 2.417969-4.773438 5.574219-4.773438h44.652343c3.15625 0 5.683594 2.164063 5.574219 4.773438l-6.65625 157.136719c-.105469 2.480468-2.566406 4.449218-5.570312 4.449218h-31.347657c-3 0-5.464843-1.96875-5.570312-4.449218zm0 0" fill="#e0ebfc"/><path d="m79.464844 483.527344h-48.003906c-2.828126 0-5.121094-2.292969-5.121094-5.121094v-30.332031h58.246094v30.332031c0 2.828125-2.292969 5.121094-5.121094 5.121094zm0 0" fill="#a4c9ff"/><path d="m67.070312 465.796875v-6.207031c0-2.40625-1.949218-4.355469-4.351562-4.355469h-14.507812c-2.402344 0-4.351563 1.949219-4.351563 4.355469v6.207031zm0 0" fill="#e0ebfc"/><path d="m106.664062 244.824219h-102.402343v-18.246094c0-1.382813 1.125-2.503906 2.503906-2.503906h97.394531c1.382813 0 2.503906 1.121093 2.503906 2.503906zm0 0" fill="#a4c9ff"/><path d="m94.015625 452.070312h-77.105469c-4.414062 0-8.003906-3.144531-8.175781-7.164062l-8.46875-199.917969c-.042969-1.085937.355469-2.148437 1.113281-2.933593.753906-.789063 1.792969-1.234376 2.882813-1.234376h102.402343c1.089844 0 2.132813.449219 2.886719 1.234376.753907.789062 1.152344 1.847656 1.109375 2.933593l-8.46875 199.914063c-.167968 4.023437-3.761718 7.167968-8.175781 7.167968zm-77.3125-8.019531c.058594.011719.128906.019531.207031.019531h77.109375c.078125 0 .144531-.007812.203125-.019531l8.269532-195.230469h-94.054688zm0 0" fill="#3762cc"/><path d="m79.464844 487.527344h-48.003906c-5.027344 0-9.121094-4.089844-9.121094-9.121094v-30.335938c0-2.207031 1.792968-4 4-4h58.246094c2.207031 0 4 1.792969 4 4v30.335938c0 5.027344-4.09375 9.121094-9.121094 9.121094zm-49.125-35.457032v26.335938c0 .617188.503906 1.121094 1.121094 1.121094h48.003906c.621094 0 1.121094-.503906 1.121094-1.121094v-26.335938zm0 0" fill="#3762cc"/><path d="m106.664062 248.824219h-102.402343c-2.207031 0-4-1.792969-4-4v-18.246094c0-3.585937 2.917969-6.503906 6.503906-6.503906h97.394531c3.585938 0 6.503906 2.917969 6.503906 6.503906v18.246094c0 2.207031-1.792968 4-4 4zm-98.402343-8h94.402343v-12.75h-94.402343zm0 0" fill="#3762cc"/><path d="m180.113281 483.527344h-86.398437c-9.941406 0-18-8.058594-18-18v-46.800782c0-1.988281 1.613281-3.601562 3.601562-3.601562h115.199219c1.988281 0 3.597656 1.613281 3.597656 3.601562v46.800782c0 9.9375-8.054687 18-18 18zm0 0" fill="#6bdddd"/><path d="m188.816406 415.125h-105.601562v-16.199219c0-1.988281 1.613281-3.601562 3.601562-3.601562h98.398438c1.988281 0 3.601562 1.613281 3.601562 3.601562zm0 0" fill="#e0ebfc"/><path d="m171.285156 356.371094c-.558594-.964844-1.851562-1.195313-2.710937-.480469l-7.363281 6.132813c-3.960938 3.292968-8.949219 5.101562-14.101563 5.101562h-23.132813c-3.9375 0-7.835937.757812-11.484374 2.234375-10.296876 4.164063-17.527344 13.578125-18.90625 24.59375l-.167969 1.371094h84.597656c.644531-1.886719 1.101563-3.820313 1.40625-5.773438h.429687c3.257813-17.101562-8.566406-33.179687-8.566406-33.179687zm0 0" fill="#e0ebfc"/><path d="m180.117188 487.527344h-86.398438c-12.132812 0-22-9.871094-22-22v-46.800782c0-4.191406 3.40625-7.601562 7.597656-7.601562h115.199219c4.195313 0 7.601563 3.410156 7.601563 7.601562v46.800782c0 12.128906-9.871094 22-22 22zm-100.398438-68.402344v46.402344c0 7.71875 6.28125 14 14 14h86.398438c7.71875 0 14-6.28125 14-14v-46.402344zm0 0" fill="#3762cc"/><path d="m188.816406 419.125h-105.601562c-2.207032 0-4-1.789062-4-4v-16.199219c0-4.191406 3.410156-7.601562 7.601562-7.601562h98.398438c4.191406 0 7.601562 3.410156 7.601562 7.601562v16.199219c0 2.210938-1.792968 4-4 4zm-101.597656-8h97.597656v-11.800781h-97.597656zm0 0" fill="#3762cc"/><path d="m178.015625 399.324219h-84.601563c-1.148437 0-2.238281-.492188-3-1.351563-.757812-.859375-1.109374-2.007812-.96875-3.144531l.171876-1.371094c1.554687-12.441406 9.742187-23.097656 21.375-27.804687 4.148437-1.675782 8.515624-2.527344 12.984374-2.527344h23.132813c4.207031 0 8.308594-1.480469 11.542969-4.175781l7.367187-6.132813c1.316407-1.09375 3.039063-1.546875 4.726563-1.25 1.601562.285156 2.996094 1.222656 3.867187 2.582032 1.308594 1.828124 12.582031 18.242187 9.167969 36.152343-.117188.613281-.371094 1.167969-.722656 1.644531-.324219 1.617188-.746094 3.1875-1.253906 4.675782-.558594 1.617187-2.078126 2.703125-3.789063 2.703125zm-79.875-8h76.863281c.183594-.777344.339844-1.574219.464844-2.386719.101562-.640625.347656-1.226562.707031-1.722656 1.496094-11.472656-4.34375-22.457032-6.933593-26.671875l-5.472657 4.554687c-4.664062 3.886719-10.582031 6.027344-16.660156 6.027344h-23.132813c-3.4375 0-6.796874.65625-9.984374 1.945312-7.953126 3.214844-13.8125 10.050782-15.851563 18.253907zm69.679687-32.949219s.003907.003906.003907.003906-.003907 0-.003907-.003906zm0 0" fill="#3762cc"/><path d="m75.585938 97.546875c-6.742188 14.738281-17.929688 27.015625-31.851563 35.132813-2.5 1.453124-2.5 4.984374 0 6.441406 13.921875 8.109375 25.109375 20.390625 31.851563 35.128906 1.3125 2.863281 5.390624 2.863281 6.703124 0 6.742188-14.738281 17.929688-27.019531 31.855469-35.128906 2.496094-1.457032 2.496094-4.988282 0-6.441406-13.925781-8.117188-25.113281-20.394532-31.855469-35.132813-1.3125-2.863281-5.390624-2.863281-6.703124 0zm0 0" fill="#ffea92"/><path d="m110.335938 40.921875c-4.71875 10.316406-12.550782 18.914063-22.296876 24.59375-1.75 1.015625-1.75 3.492187 0 4.507813 9.746094 5.679687 17.578126 14.273437 22.296876 24.59375.917968 2.003906 3.773437 2.003906 4.691406 0 4.71875-10.320313 12.550781-18.914063 22.296875-24.59375 1.75-1.015626 1.75-3.488282 0-4.507813-9.746094-5.679687-17.578125-14.277344-22.296875-24.59375-.917969-2.003906-3.773438-2.003906-4.691406 0zm0 0" fill="#ffea92"/><path d="m403.070312 309.59375c-6.746093 14.734375-17.929687 27.015625-31.855468 35.128906-2.496094 1.457032-2.496094 4.988282 0 6.441406 13.925781 8.113282 25.109375 20.390626 31.855468 35.128907 1.308594 2.863281 5.390626 2.863281 6.699219 0 6.746094-14.738281 17.929688-27.015625 31.855469-35.128907 2.496094-1.457031 2.496094-4.988281 0-6.441406-13.925781-8.113281-25.109375-20.394531-31.855469-35.128906-1.308593-2.867188-5.390625-2.867188-6.699219 0zm0 0" fill="#ffea92"/><path d="m437.820312 252.964844c-4.722656 10.316406-12.554687 18.914062-22.300781 24.59375-1.746093 1.015625-1.746093 3.492187 0 4.507812 9.746094 5.679688 17.578125 14.277344 22.300781 24.59375.917969 2.003906 3.773438 2.003906 4.6875 0 4.722657-10.316406 12.550782-18.914062 22.300782-24.59375 1.746094-1.015625 1.746094-3.488281 0-4.507812-9.75-5.679688-17.578125-14.273438-22.300782-24.59375-.917968-2.003906-3.773437-2.003906-4.6875 0zm0 0" fill="#ffea92"/><path d="m262.644531 44.898438h4.375c20.230469 0 39.269531 5.097656 55.910157 14.074218v-5.097656c0-27.546875-22.332032-49.878906-49.878907-49.878906h-10.621093c-27.546876 0-49.878907 22.332031-49.878907 49.878906v2.175781c15.210938-7.140625 32.179688-11.152343 50.09375-11.152343zm0 0" fill="#4671c6"/><path d="m322.933594 62.972656c-.652344 0-1.304688-.160156-1.898438-.480468-16.488281-8.894532-35.171875-13.59375-54.015625-13.59375h-4.375c-16.886719 0-33.167969 3.625-48.390625 10.777343-1.238281.582031-2.6875.488281-3.84375-.246093-1.15625-.734376-1.855468-2.007813-1.855468-3.375v-2.175782c0-29.707031 24.167968-53.878906 53.875-53.878906h10.625c29.707031 0 53.875 24.171875 53.875 53.878906v5.09375c0 1.40625-.738282 2.710938-1.949219 3.433594-.628907.375-1.335938.566406-2.046875.566406zm-60.289063-22.074218h4.375c17.949219 0 35.75 3.984374 51.894531 11.570312-.746093-24.648438-21.03125-44.46875-45.859374-44.46875h-10.621094c-23.945313 0-43.664063 18.433594-45.707032 41.859375 14.585938-5.953125 30-8.960937 45.917969-8.960937zm0 0" fill="#3762cc"/></svg>